<?xml version="1.0" standalone="no"?><!DOCTYPE svg PUBLIC "-//W3C//DTD SVG 1.1//EN" "http://www.w3.org/Graphics/SVG/1.1/DTD/svg11.dtd"><svg t="1653106425091" class="icon" viewBox="0 0 1024 1024" version="1.1" xmlns="http://www.w3.org/2000/svg" p-id="1579" xmlns:xlink="http://www.w3.org/1999/xlink" width="200" height="200"><defs><style type="text/css">@font-face { font-family: feedback-iconfont; src: url("//at.alicdn.com/t/font_1031158_u69w8yhxdu.woff2?t=1630033759944") format("woff2"), url("//at.alicdn.com/t/font_1031158_u69w8yhxdu.woff?t=1630033759944") format("woff"), url("//at.alicdn.com/t/font_1031158_u69w8yhxdu.ttf?t=1630033759944") format("truetype"); }
</style></defs><path d="M512 511.354351m-322.824716 0a322.824716 322.824716 0 1 0 645.649432 0 322.824716 322.824716 0 1 0-645.649432 0Z" fill="#E9EAEB" p-id="1580"></path><path d="M137.523329 679.223203h116.216898v25.825977h-116.216898zM137.523329 588.832282h116.216898v25.825978h-116.216898zM137.523329 498.441362h116.216898v25.825977h-116.216898zM137.523329 408.050441h116.216898v25.825978h-116.216898zM137.523329 317.659521h116.216898v25.825977h-116.216898zM770.259773 679.223203h116.216898v25.825977h-116.216898zM770.259773 588.832282h116.216898v25.825978h-116.216898zM770.259773 498.441362h116.216898v25.825977h-116.216898zM770.259773 408.050441h116.216898v25.825978h-116.216898zM770.259773 317.659521h116.216898v25.825977h-116.216898zM318.30517 769.614124h25.825978v116.216897h-25.825978zM408.696091 769.614124h25.825977v116.216897h-25.825977zM499.087011 769.614124h25.825978v116.216897h-25.825978zM589.477932 769.614124h25.825977v116.216897h-25.825977zM679.868852 769.614124h25.825978v116.216897h-25.825978zM318.30517 136.87768h25.825978v116.216898h-25.825978zM408.696091 136.87768h25.825977v116.216898h-25.825977zM499.087011 136.87768h25.825978v116.216898h-25.825978zM589.477932 136.87768h25.825977v116.216898h-25.825977zM679.868852 136.87768h25.825978v116.216898h-25.825978z" fill="#2A5082" p-id="1581"></path><path d="M266.653216 266.007566h490.693568v490.693569h-490.693568z" fill="#A3D4FF" p-id="1582"></path><path d="M770.259773 769.614124h-516.519546v-516.519546h516.519546v516.519546z m-490.693569-25.825978h464.867592v-464.867591h-464.867592v464.867591z" fill="#2A5082" p-id="1583"></path><path d="M434.522068 433.876419h154.955864v154.955863h-154.955864z" fill="#FFFFFF" p-id="1584"></path><path d="M602.390921 601.745271h-180.781842v-180.781841h180.781842v180.781841z m-154.955864-25.825977h129.129886v-129.129887h-129.129886v129.129887zM369.957125 446.789407h25.825977v25.825978h-25.825977zM369.957125 498.441362h25.825977v25.825977h-25.825977zM369.957125 550.093317h25.825977v25.825977h-25.825977zM628.216898 446.789407h25.825977v25.825978h-25.825977zM628.216898 498.441362h25.825977v25.825977h-25.825977zM628.216898 550.093317h25.825977v25.825977h-25.825977zM447.435057 369.311475h25.825977v25.825978h-25.825977zM499.087011 369.311475h25.825978v25.825978h-25.825978zM550.738966 369.311475h25.825977v25.825978h-25.825977zM447.435057 627.571248h25.825977v25.825978h-25.825977zM499.087011 627.571248h25.825978v25.825978h-25.825978zM550.738966 627.571248h25.825977v25.825978h-25.825977z" fill="#2A5082" p-id="1585"></path></svg>